<svg xmlns="http://www.w3.org/2000/svg" viewBox="0 0 520.31 134.9"><defs><style>.cls-1{fill:#54312d;}.cls-2{fill:#b81e46;}</style></defs><g id="Layer_2" data-name="Layer 2"><g id="Layer_1-2" data-name="Layer 1"><path class="cls-1" d="M72.45,94.59,67.82,74c-1.19-5.3-4.7-8.46-7.82-7l-19.4,8.8C37.48,77.2,35.91,82.67,37.1,88l4.63,20.57c1.19,5.3,4.7,8.46,7.82,7l19.4-8.8C72.07,105.36,73.64,99.89,72.45,94.59Zm-28.58,13L39.24,87c-.74-3.29.24-6.69,2.18-7.57l19.4-8.81c1.94-.88,4.12,1.08,4.86,4.38l4.63,20.58c.74,3.29-.24,6.69-2.18,7.57L48.74,112C46.79,112.83,44.61,110.87,43.87,107.57Z"/><path class="cls-1" d="M44.37,98.28l6.09,2.63.92-1.7,3,1.34-.91,1.68-1.94,3.56-3-1.31-3.05-1.32-1.1-4.88"/><path class="cls-1" d="M44.29,85.67l2-3.56,3,1.31,3.06,1.33,1.1,4.87L47.33,87l-.88,1.61-3-1.34Z"/><path class="cls-1" d="M42.52,88.94l3,1.38,8.67,3.75.26.11,1,4.45-.17.31-3-1.31-8.68-3.75-.21-.09-1-4.53.14-.25,0-.07"/><path class="cls-1" d="M56.12,93l6.09,2.63.93-1.7,3,1.34-.92,1.67-1.94,3.56-3-1.31-3.05-1.32L56.12,93"/><path class="cls-1" d="M65.2,84.37h0L59.1,81.75l-.86,1.58a0,0,0,0,1,0,0h0l-3-1.34a.15.15,0,0,1,0-.06.19.19,0,0,1,0-.08L58,76.71l0,0h0l6.1,2.64a.15.15,0,0,1,0,.06l1.09,4.87a.09.09,0,0,1,0,.09A0,0,0,0,1,65.2,84.37Z"/><path class="cls-1" d="M54.27,83.6l3,1.38,8.67,3.75.27.11,1,4.45L67,93.6l-3-1.31-8.67-3.75-.22-.09-1-4.53.13-.25,0-.07"/><path class="cls-1" d="M90.44,84.62l10.44-1.77c3.14-.52,8.08-.5,3.86-5-3.6-3.85-8.06-9.28-8.06-9.28s-1.13-2.24-5.39-.83c-3.88,1.28-3.78.66-3,5.11S90.44,84.62,90.44,84.62Z"/><polygon class="cls-1" points="144.72 102.65 146.49 112.98 171.26 112.98 170.23 109.53 149.79 109.53 149.06 108.28 169.75 108.28 169.21 105.24 145.81 104.1 144.72 102.65"/><path class="cls-1" d="M143.24,112.78H135.4L131.87,99c.51,0,1-.06,1.5-.07A8,8,0,0,1,135,99a3.6,3.6,0,0,1,.67.18,3.2,3.2,0,0,1,.57.32,3.36,3.36,0,0,1,.52.54,7.27,7.27,0,0,1,.47.74,17.69,17.69,0,0,1,.81,1.8l.76,1.93c.51,1.3,1.06,2.6,1.68,3.85-.19-1.39-.35-2.76-.51-4.15a27.79,27.79,0,0,0-.73-4.23,7.81,7.81,0,0,0-.42-1.13,5.31,5.31,0,0,0-.71-1.13,4.86,4.86,0,0,0-1.07-.95,5.21,5.21,0,0,0-1.24-.59,8.74,8.74,0,0,0-2.43-.42,13.74,13.74,0,0,0-2.24.1l.06.62-.82-3.19C145.17,91.8,141.31,107.82,143.24,112.78Z"/><path class="cls-1" d="M179,113.28l-6.06-.09-2.1-10.66.94,0a5.6,5.6,0,0,1,1,.06,3.63,3.63,0,0,1,.42.11,2.08,2.08,0,0,1,.35.2,1.75,1.75,0,0,1,.32.34,3.31,3.31,0,0,1,.29.46,10.34,10.34,0,0,1,.51,1.11l.47,1.2c.32.81.66,1.62,1.05,2.4-.12-.87-.22-1.72-.32-2.58a18.64,18.64,0,0,0-.46-2.63,4,4,0,0,0-.26-.7,3.6,3.6,0,0,0-.44-.71,3.1,3.1,0,0,0-.66-.59,3.64,3.64,0,0,0-.78-.36,5.21,5.21,0,0,0-1.51-.26,8,8,0,0,0-1.39.06l-.47-1.6C179.09,98.07,177.55,108.1,179,113.28Z"/><path class="cls-1" d="M112.53,115.47c.32,3.7-.81,6.83-2.54,7s-3.39-2.73-3.71-6.43.81-6.83,2.54-7S112.2,111.77,112.53,115.47Z"/><path class="cls-1" d="M186.26,105.44A28,28,0,0,0,183.11,97a21.88,21.88,0,0,0-6-6.8,21.29,21.29,0,0,0-1.89-1.25c-.31-.21-.65-.37-1-.55l-1-.51c-.34-.15-.68-.28-1-.42l-.77-.32-.27-.09-1-.34-.52-.17-.53-.13c-.71-.17-1.41-.37-2.12-.47l-1.07-.17c-.35-.07-.71-.08-1.07-.13l-1.06-.1c-.36,0-.72,0-1.07-.05l-1.06,0c-.36,0-.71,0-1.07,0a41,41,0,0,0-8.29,1.06s5.52.49,8.17.9c.33.06.66.09,1,.16l1,.2c.32.07.65.12,1,.2l1,.25c.32.08.64.15.95.26l.94.3c.62.19,1.22.45,1.82.68a19.46,19.46,0,0,1,10.67,9.84,24.1,24.1,0,0,1,2,7.09,36.86,36.86,0,0,1,.12,7.58,60.63,60.63,0,0,1-1.09,7.28l-47.13-1.15c0-1.71-.18-3.43-.39-5.13a48.76,48.76,0,0,0-2.71-11.41,36.45,36.45,0,0,0-5.73-10.18,28.25,28.25,0,0,0-4.06-4.12,22.52,22.52,0,0,0-2.32-1.69,15,15,0,0,0-2.51-1.31,18.32,18.32,0,0,1,2,1.9,25.22,25.22,0,0,1,1.76,2.11c.28.36.53.73.8,1.1s.51.74.74,1.14.47.76.69,1.16l.33.58.31.6a36.37,36.37,0,0,1,2.09,4.91c.13.43.29.83.41,1.26l.38,1.27c.21.87.44,1.72.59,2.59s.33,1.73.48,2.59l.17,1.32.08.65.06.66.12,1.32.07,1.32c.06.87.06,1.76.08,2.64,0,1.72,0,3.44-.13,5.16l-7.8,1a22,22,0,0,0,.28-3.65c0-11.7-4.64-19.13-10.43-19.25s-8.63,7.31-8.69,13.88a26,26,0,0,0,1.84,10.56l-8.17,1.08L84.13,66c17.86-9.37,46.28,0,46.28,0l-1.89-7.56-50.94-5,9.19,63.59L41.71,129.71c1-5-1.65-15.52-6.07-15.16S32,122,32,122c1.09-8.48,6.68-4.46,6.11,4s-3.29,7-3.29,7a2.8,2.8,0,0,0,2.45,1.89c1.81,0,73.66-3.54,73.66-3.54l73.09-.12h0a78,78,0,0,0,2.07-8.33l.34-2.14.08-.54.06-.54.12-1.08q.08-.54.12-1.08l.08-1.09.07-1.09c0-.36,0-.73,0-1.1A39.88,39.88,0,0,0,186.26,105.44Zm-77.39,22.25c-3.33.35-6.63-5-7.36-11.89s1.39-12.81,4.73-13.16,6.63,5,7.36,11.89S112.21,127.34,108.87,127.69Z"/><path class="cls-1" d="M32.31,131.2s-2.53-.93-3.54-6.52c-.84-4.62-8.41-42.78-8.41-42.78A5.41,5.41,0,0,1,23.16,76c3.66-1.91,53.29-28,53.29-28l51.08,5.86s-6.48-4.63-22.73-7.44S80,42.2,78.1,41.86a10,10,0,0,0-6.8,1.71C69.13,45,19,74.3,19,74.3s-3.3,1.33-1.78,8.41c1.62,7.57,9,45.75,9,45.75s.25,2.76,2.24,2.74S32.31,131.2,32.31,131.2Z"/><ellipse class="cls-1" cx="34.8" cy="125.97" rx="1.97" ry="4.3"/><path class="cls-1" d="M110,122.45c-1.72.15-3.39-2.73-3.71-6.43s.81-6.83,2.54-7,3.38,2.73,3.71,6.43S111.72,122.3,110,122.45Z"/><path class="cls-1" d="M110,122.45c-1.72.15-3.39-2.73-3.71-6.43s.81-6.83,2.54-7,3.38,2.73,3.71,6.43S111.72,122.3,110,122.45Z"/><path class="cls-1" d="M133.55,69.56c-9.93-4.22-29.54-6.16-34-4.36L113.33,81s22.19-.77,36.94,3C150.27,84.07,143.48,73.78,133.55,69.56Zm-18.7-2.32c25.57,1.43,30.8,13.7,30.8,13.7C132.14,71.83,114.85,67.24,114.85,67.24Z"/><path class="cls-2" d="M190.53,61.35A53.11,53.11,0,0,0,188.27,53a52.2,52.2,0,0,0-3.68-8,51.65,51.65,0,0,0-5.06-7.33,55.57,55.57,0,0,0-6.26-6.39,62.62,62.62,0,0,0-7.16-5.32,63.76,63.76,0,0,0-7.81-4.19,72,72,0,0,0-16.67-5.13q-2.13-.39-4.26-.69c-1.43-.19-2.85-.35-4.28-.49-2.85-.26-5.7-.4-8.54-.45s-5.67,0-8.49.1c-.46,0-.91.07-1.36.09.21.81.36,2.59-2.08,3.7l.31.85-.69.69c-1,1.82-5.43,3.32-7.29,3.32h-.6l-.42-.17a4.71,4.71,0,0,1-2.76,1.2c-1.82,0-2.73-1.58-3.34-2.64L97,20.63A12.13,12.13,0,0,0,95.87,19c.15.16-.68.46-1.49.75-7.71,2.78-14.66,5.1-22.29,5.69a4.46,4.46,0,0,1-3.74,2,5,5,0,0,1-2.52-.71,11,11,0,0,0-1.72-.7A142.07,142.07,0,0,0,44,35.49,118.72,118.72,0,0,0,17.65,56.07,90.84,90.84,0,0,0,7.31,69.16,81.59,81.59,0,0,0,3.2,76.37c-.3.61-.59,1.24-.89,1.86l-.84,1.89C1.21,80.75,1,81.39.7,82S.23,83.31,0,84l1.13-1.7,1.16-1.68c.4-.55.79-1.11,1.19-1.65s.81-1.08,1.22-1.61c1.64-2.15,3.39-4.2,5.18-6.18a111.06,111.06,0,0,1,11.6-11A143.12,143.12,0,0,1,48.11,43.08c2.36-1.17,4.73-2.33,7.14-3.39s4.85-2.09,7.3-3c.61-.25,1.22-.49,1.84-.72l1.85-.69c1.24-.46,2.48-.9,3.72-1.33s2.5-.84,3.76-1.24l1.88-.6,1.89-.57a147,147,0,0,1,31-5.71q3.93-.26,7.83-.27t7.8.3c2.58.19,5.15.48,7.69.85,1.27.18,2.54.39,3.8.63s2.51.47,3.75.75a94.85,94.85,0,0,1,14.43,4.37,60.41,60.41,0,0,1,13,7,45.5,45.5,0,0,1,5.64,4.72,43.7,43.7,0,0,1,4.86,5.56,49.59,49.59,0,0,1,7,13.34,69.06,69.06,0,0,1,3.33,15.32,114.62,114.62,0,0,1,.45,16.2,78,78,0,0,0,3.22-16.23A63.1,63.1,0,0,0,190.53,61.35Z"/><path class="cls-1" d="M51.49,20.63c3.39-2.77,7.34-1.24,11.16-1.34-.72-2.57-1.36-5-2.11-7.39-.28-.93,0-1.25.82-1.63,1.82-.8,3.32-1,4.79.78,1.13,1.34,2.69,2.29,3.92,3.56,2.06,2.12,4.33,2.19,6.84,1a36.47,36.47,0,0,0,5.3-2.79L51.6,5.53C53.92,4.4,55.43,2.86,58,3.31,64,4.36,70,5.1,76,6a4.85,4.85,0,0,0,2.2-.17,37.33,37.33,0,0,1,3.9-.9c.86-.16,1.86,0,1.93,1,.1,1.3,1,1.2,1.74,1.3,2.12.28,4.25.48,6.37.77a4.22,4.22,0,0,0,2.17-.37c1.35-.54,2.7-1.1,4.17-.33.59.31,1.14-.08,1.68-.28,5.38-1.94,10.79-3.82,16.13-5.86A16.67,16.67,0,0,1,126.47.55c1.59.39,2,1.56,1,2.87a9.94,9.94,0,0,1-3,2.38,62.51,62.51,0,0,1-14.27,5.68c-1.83.52-2.33,1.86-3,3.2-.36.7.23.62.64.67a18.56,18.56,0,0,0,3.34-.37c.61,0,1.38-.25,1.62.61s-.38,1.18-1,1.44c-.88.39-1.64.77-1.19,1.95a.74.74,0,0,1-.12.46c-.52,1-5.2,2.76-6.11,2.15-.72-.49-1-.16-1.44.21-1.83,1.39-2.21,1.3-3.37-.7-.29-.51-.59-1-.89-1.52-1.77-2.92-1.76-2.9-5-1.71-7.15,2.57-14.34,5-22,5.56-.4,0-.75,0-1,.55a2.55,2.55,0,0,1-3.76,1A32.25,32.25,0,0,0,63,23.46C59.25,21.9,55.25,21.9,51.49,20.63Z"/><path class="cls-1" d="M289.56,70.13V29.25h14.68q7.89,0,12,2.89a9.63,9.63,0,0,1,4.11,8.4A9.69,9.69,0,0,1,318.89,46a8.51,8.51,0,0,1-4.29,3.31,8.62,8.62,0,0,1,4.91,3.14A9.17,9.17,0,0,1,321.22,58q0,6-3.8,9t-11.27,3.08Zm9.85-23.84h5.14c2.15,0,3.68-.41,4.6-1.18a4.19,4.19,0,0,0,1.38-3.41A4.42,4.42,0,0,0,309,38a8,8,0,0,0-4.8-1.14h-4.83Zm0,6.46v9.8h6.46A6.14,6.14,0,0,0,310,61.33a4.27,4.27,0,0,0,1.44-3.44c0-3.41-1.7-5.12-5.08-5.14Z"/><path class="cls-1" d="M349.86,62.49h-13.5L334,70.13H323.47l15-40.88h9.26l15.11,40.88H352.25Zm-11.15-7.61h8.79l-4.41-14.17Z"/><path class="cls-1" d="M399.94,70.13h-9.79L375.66,44.69V70.13h-9.85V29.25h9.85l14.46,25.44V29.25h9.82Z"/><path class="cls-1" d="M439.64,65.07A15.75,15.75,0,0,1,433,69.15a28.93,28.93,0,0,1-9.6,1.54q-8,0-12.83-4.91T405.42,52.1l0-3.53A24.47,24.47,0,0,1,407.52,38a15.9,15.9,0,0,1,6.11-6.93,17.27,17.27,0,0,1,9.2-2.43q7.64,0,11.86,3.5c2.81,2.33,4.46,5.8,4.92,10.43h-9.49a7.69,7.69,0,0,0-2.19-4.89,7.07,7.07,0,0,0-4.77-1.46,6.41,6.41,0,0,0-5.72,3.15c-1.35,2.09-2,5.09-2.05,9v2.47c0,4.08.69,7.15,2.09,9.2s3.59,3.07,6.58,3.07q3.84,0,5.73-1.71V55.05h-6.85V48.29h16.7Z"/><path class="cls-1" d="M455.22,62.55h17.16v7.58h-27V29.25h9.85Z"/><path class="cls-1" d="M500.28,62.49h-13.5l-2.36,7.64H473.89l15-40.88h9.26l15.1,40.88H502.67Zm-11.14-7.61h8.78l-4.4-14.17Z"/><path class="cls-1" d="M225.39,58.92a4,4,0,0,0-1.52-3.36,19.21,19.21,0,0,0-5.36-2.49,51.64,51.64,0,0,1-6.27-2.49q-7.92-3.9-7.92-10.7a9.61,9.61,0,0,1,2-6,12.78,12.78,0,0,1,5.58-4A21.79,21.79,0,0,1,220,28.44,19.08,19.08,0,0,1,227.87,30a12.57,12.57,0,0,1,5.42,4.47,11.64,11.64,0,0,1,1.93,6.62h-9.8a5,5,0,0,0-1.52-3.87,6,6,0,0,0-4.13-1.37A6.74,6.74,0,0,0,215.61,37a3.43,3.43,0,0,0,.16,5.8,21.22,21.22,0,0,0,5.9,2.63,36.11,36.11,0,0,1,6.94,2.92q6.62,3.81,6.61,10.5a9.94,9.94,0,0,1-4,8.4q-4,3-11.06,3a21.87,21.87,0,0,1-9-1.78,13.54,13.54,0,0,1-6-4.87,12.68,12.68,0,0,1-2-7.12h9.85a6.26,6.26,0,0,0,1.69,4.83q1.69,1.55,5.5,1.55A6.33,6.33,0,0,0,224,61.87,3.46,3.46,0,0,0,225.39,58.92Z"/><path class="cls-1" d="M261.28,58.92a4,4,0,0,0-1.53-3.36,19.07,19.07,0,0,0-5.36-2.49,53,53,0,0,1-6.27-2.49q-7.92-3.9-7.92-10.7a9.61,9.61,0,0,1,2-6,12.75,12.75,0,0,1,5.59-4,21.75,21.75,0,0,1,8.12-1.44A19.11,19.11,0,0,1,263.76,30a12.54,12.54,0,0,1,5.41,4.47,11.64,11.64,0,0,1,1.93,6.62h-9.79a4.94,4.94,0,0,0-1.53-3.87,6,6,0,0,0-4.13-1.37A6.76,6.76,0,0,0,251.49,37a3.43,3.43,0,0,0,.16,5.8,21.31,21.31,0,0,0,5.91,2.63,36.39,36.39,0,0,1,6.94,2.92q6.6,3.81,6.6,10.5a9.94,9.94,0,0,1-4,8.4q-4,3-11.05,3a21.88,21.88,0,0,1-9-1.78,13.51,13.51,0,0,1-6-4.87,12.69,12.69,0,0,1-2-7.12h9.85a6.26,6.26,0,0,0,1.7,4.83c1.12,1,3,1.55,5.5,1.55a6.3,6.3,0,0,0,3.84-1.05A3.44,3.44,0,0,0,261.28,58.92Z"/><path class="cls-1" d="M228.44,116.94h-15.5v9.77h18.3v7.58H203.09V93.41H231.3V101H212.94v8.62h15.5Z"/><path class="cls-1" d="M250.5,107l6.69-13.59h11.25L257,113.68l11.73,20.61H257.38l-6.88-13.84-6.88,13.84H232.28L244,113.68l-11.4-20.27h11.23Z"/><path class="cls-1" d="M281.81,120.42v13.87H272V93.41h16.31a19,19,0,0,1,8.3,1.73,13.07,13.07,0,0,1,5.59,4.91,13.44,13.44,0,0,1,2,7.23,11.81,11.81,0,0,1-4.29,9.56q-4.27,3.59-11.75,3.58Zm0-7.61h6.45a6.07,6.07,0,0,0,4.37-1.43,5.31,5.31,0,0,0,1.5-4,6.59,6.59,0,0,0-1.54-4.58,5.49,5.49,0,0,0-4.21-1.74h-6.57Z"/><path class="cls-1" d="M324.56,119.83h-5.33v14.46h-9.85V93.41h16.08q7.28,0,11.37,3.23a10.93,10.93,0,0,1,4.1,9.11,13.18,13.18,0,0,1-1.73,7.07,12.26,12.26,0,0,1-5.4,4.55l8.54,16.5v.42H331.78Zm-5.33-7.58h6.23a5.63,5.63,0,0,0,4.23-1.47,6.71,6.71,0,0,0,0-8.28,5.55,5.55,0,0,0-4.21-1.5h-6.23Z"/><path class="cls-1" d="M372.23,116.94H356.74v9.77H375v7.58H346.88V93.41H375.1V101H356.74v8.62h15.49Z"/><path class="cls-1" d="M400.14,123.43a4,4,0,0,0-1.53-3.37,18.79,18.79,0,0,0-5.38-2.5,50.12,50.12,0,0,1-6.28-2.5q-7.95-3.9-7.95-10.72a9.62,9.62,0,0,1,2-6,12.8,12.8,0,0,1,5.6-4,21.86,21.86,0,0,1,8.14-1.45,19.1,19.1,0,0,1,7.91,1.58,12.48,12.48,0,0,1,5.43,4.47,11.71,11.71,0,0,1,1.93,6.64h-9.82a4.94,4.94,0,0,0-1.53-3.87,6,6,0,0,0-4.14-1.38,6.71,6.71,0,0,0-4.17,1.17,3.43,3.43,0,0,0,.15,5.81,21.46,21.46,0,0,0,5.93,2.64,36.59,36.59,0,0,1,7,2.93q6.63,3.82,6.62,10.53a10,10,0,0,1-4,8.42q-4,3.06-11.09,3.06a22,22,0,0,1-9-1.78,13.66,13.66,0,0,1-6.06-4.88,12.71,12.71,0,0,1-2-7.15h9.88a6.24,6.24,0,0,0,1.7,4.84q1.69,1.56,5.51,1.56a6.34,6.34,0,0,0,3.86-1A3.46,3.46,0,0,0,400.14,123.43Z"/><path class="cls-1" d="M436.13,123.43a4,4,0,0,0-1.53-3.37,18.84,18.84,0,0,0-5.37-2.5,50.34,50.34,0,0,1-6.29-2.5q-7.95-3.9-7.95-10.72a9.62,9.62,0,0,1,2-6,12.8,12.8,0,0,1,5.6-4,21.9,21.9,0,0,1,8.14-1.45,19.06,19.06,0,0,1,7.91,1.58,12.48,12.48,0,0,1,5.43,4.47,11.71,11.71,0,0,1,1.94,6.64h-9.83a4.94,4.94,0,0,0-1.53-3.87,6,6,0,0,0-4.14-1.38,6.71,6.71,0,0,0-4.17,1.17,3.43,3.43,0,0,0,.15,5.81,21.46,21.46,0,0,0,5.93,2.64,36.31,36.31,0,0,1,7,2.93q6.63,3.82,6.63,10.53a10,10,0,0,1-4.05,8.42q-4,3.06-11.09,3.06a21.93,21.93,0,0,1-9-1.78,13.63,13.63,0,0,1-6.07-4.88,12.71,12.71,0,0,1-2-7.15h9.88a6.24,6.24,0,0,0,1.7,4.84q1.7,1.56,5.51,1.56a6.34,6.34,0,0,0,3.86-1A3.46,3.46,0,0,0,436.13,123.43Z"/><path class="cls-1" d="M487.84,117.35h-29a3.5,3.5,0,0,1,0-7h29a3.5,3.5,0,0,1,0,7Z"/><path class="cls-1" d="M516.81,99.85H458.87a3.5,3.5,0,0,1,0-7h57.94a3.5,3.5,0,0,1,0,7Z"/><path class="cls-1" d="M472.38,134.85H458.87a3.5,3.5,0,0,1,0-7h13.51a3.5,3.5,0,0,1,0,7Z"/></g></g></svg>