<svg width="299" height="299" viewBox="0 0 299 299" fill="none" xmlns="http://www.w3.org/2000/svg">
<rect width="299" height="299" rx="149.5" fill="white"/>
<path d="M127.381 164.829L122.841 144.639C121.671 139.429 118.221 136.339 115.161 137.729L96.1609 146.369C93.1009 147.759 91.5609 153.119 92.7309 158.319L97.2709 178.509C98.4409 183.709 101.881 186.809 104.951 185.419L123.951 176.779C127.001 175.389 128.551 169.999 127.381 164.829ZM99.3809 177.559L94.7909 157.369C94.0609 154.129 95.0209 150.799 96.9209 149.929L115.921 141.289C117.831 140.429 119.971 142.349 120.691 145.589L125.241 165.779C125.961 169.019 125.001 172.349 123.101 173.219L104.101 181.859C102.201 182.719 100.051 180.799 99.3309 177.559H99.3809Z" fill="#54312D"/>
<path d="M99.8209 168.449L105.821 171.029L106.731 169.359L109.731 170.679L108.831 172.319L106.931 175.809L103.931 174.519L100.931 173.229L99.8509 168.449" fill="#54312D"/>
<path d="M99.7508 156.069L101.651 152.579L104.651 153.859L107.651 155.169L108.711 159.999L102.711 157.409L101.861 158.999L98.8608 157.679L99.7508 156.069Z" fill="#54312D"/>
<path d="M98.0008 159.28L100.941 160.63L109.461 164.31L109.721 164.42L110.721 168.78L110.551 169.09L107.551 167.81L99.0008 164.13L98.7908 164.03L97.7908 159.59L97.9308 159.34V159.28" fill="#54312D"/>
<path d="M111.361 163.209L117.361 165.789L118.271 164.119L121.271 165.439L120.381 167.079L118.471 170.579L115.471 169.289L112.471 167.989L111.401 163.209" fill="#54312D"/>
<path d="M120.261 154.79L114.261 152.22L113.421 153.77L110.421 152.46C110.414 152.44 110.414 152.419 110.421 152.4C110.415 152.373 110.415 152.346 110.421 152.32L113.181 147.26L119.181 149.85C119.181 149.85 119.181 149.85 119.181 149.91L120.251 154.69C120.258 154.702 120.262 154.715 120.262 154.73C120.262 154.744 120.258 154.757 120.251 154.77L120.261 154.79Z" fill="#54312D"/>
<path d="M109.531 154L112.531 155.35L121.001 159.07L121.261 159.18L122.261 163.55L122.091 163.86L119.091 162.57L110.571 158.89L110.361 158.8L109.361 154.36L109.501 154.11V154.04" fill="#54312D"/>
<path d="M145.001 154.999L155.251 153.259C158.321 152.749 163.181 152.769 159.031 148.329C155.501 144.539 151.121 139.219 151.121 139.219C151.121 139.219 150.021 137.019 145.841 138.409C142.021 139.659 142.131 139.059 142.901 143.409C143.671 147.759 145.001 154.999 145.001 154.999Z" fill="#54312D"/>
<path d="M198.301 172.729L200.031 182.869H224.341L223.331 179.479H203.271L202.561 178.259H222.861L222.331 175.279L199.361 174.149L198.301 172.729Z" fill="#54312D"/>
<path d="M196.841 182.679H189.151L185.681 169.119C186.191 169.119 186.681 169.059 187.161 169.049C187.709 169.021 188.259 169.052 188.801 169.139C189.026 169.179 189.247 169.239 189.461 169.319C189.657 169.403 189.842 169.51 190.011 169.639C190.203 169.79 190.374 169.965 190.521 170.159C190.692 170.391 190.846 170.635 190.981 170.889C191.279 171.461 191.546 172.049 191.781 172.649L192.521 174.549C193.031 175.819 193.521 177.099 194.181 178.329C193.991 176.959 193.831 175.609 193.671 174.259C193.557 172.857 193.333 171.466 193.001 170.099C192.894 169.719 192.756 169.348 192.591 168.989C192.4 168.594 192.165 168.222 191.891 167.879C191.605 167.522 191.268 167.209 190.891 166.949C190.511 166.704 190.101 166.509 189.671 166.369C188.901 166.122 188.099 165.987 187.291 165.969C186.556 165.933 185.82 165.964 185.091 166.059L185.141 166.659L184.351 163.539C198.741 162.079 195.001 177.799 196.841 182.679Z" fill="#54312D"/>
<path d="M231.911 183.16L225.971 183.08L223.911 172.61H224.831C225.165 172.596 225.5 172.612 225.831 172.66C225.971 172.686 226.108 172.726 226.241 172.78C226.365 172.827 226.483 172.891 226.591 172.97C226.704 173.07 226.808 173.18 226.901 173.3C227.01 173.441 227.107 173.592 227.191 173.75C227.376 174.106 227.539 174.473 227.681 174.85L228.141 176.02C228.461 176.82 228.791 177.61 229.141 178.37C229.031 177.53 228.931 176.69 228.831 175.85C228.748 174.977 228.601 174.111 228.391 173.26C228.322 173.023 228.235 172.793 228.131 172.57C228.015 172.323 227.871 172.092 227.701 171.88C227.511 171.658 227.292 171.463 227.051 171.3C226.809 171.149 226.551 171.028 226.281 170.94C225.802 170.787 225.304 170.703 224.801 170.69C224.347 170.674 223.892 170.694 223.441 170.75L223.001 169.14C232.001 168.24 230.521 178.08 231.911 183.16Z" fill="#54312D"/>
<path d="M166.711 185.309C167.021 188.949 165.911 192.009 164.221 192.159C162.531 192.309 160.891 189.479 160.581 185.849C160.271 182.219 161.371 179.149 163.061 178.999C164.751 178.849 166.391 181.679 166.711 185.309Z" fill="#54312D"/>
<path d="M239.061 175.469C238.497 172.546 237.464 169.733 236.001 167.139C234.49 164.523 232.446 162.254 230.001 160.479C229.409 160.033 228.792 159.622 228.151 159.249C227.841 159.039 227.511 158.889 227.151 158.709L226.151 158.209L225.151 157.789L224.391 157.479L224.141 157.399L223.141 157.059L222.621 156.899L222.101 156.769C221.417 156.577 220.722 156.423 220.021 156.309L219.001 156.139C218.661 156.069 218.301 156.059 217.951 156.009L216.951 155.909C216.601 155.909 216.251 155.909 215.901 155.909H214.901C214.551 155.909 214.201 155.909 213.901 155.909C211.163 155.959 208.439 156.294 205.771 156.909C205.771 156.909 211.181 157.389 213.771 157.789L214.771 157.939L215.771 158.139C216.091 158.209 216.411 158.259 216.771 158.339L217.711 158.579C218.021 158.669 218.341 158.729 218.651 158.829L219.561 159.129C220.181 159.319 220.761 159.569 221.361 159.799C225.964 161.551 229.715 165.012 231.831 169.459C232.828 171.68 233.479 174.041 233.761 176.459C234.056 178.925 234.096 181.415 233.881 183.889C233.672 186.293 233.315 188.68 232.811 191.039L186.561 189.909C186.511 188.229 186.391 186.539 186.181 184.909C185.751 181.082 184.857 177.321 183.521 173.709C182.194 170.097 180.297 166.721 177.901 163.709C176.705 162.246 175.365 160.905 173.901 159.709C173.181 159.111 172.423 158.56 171.631 158.059C170.853 157.55 170.03 157.115 169.171 156.759C169.885 157.333 170.554 157.962 171.171 158.639C171.788 159.291 172.366 159.979 172.901 160.699C173.181 161.049 173.431 161.419 173.691 161.779C173.951 162.139 174.191 162.509 174.411 162.899C174.631 163.289 174.881 163.649 175.091 164.039L175.421 164.609L175.721 165.199C176.502 166.756 177.171 168.367 177.721 170.019C177.851 170.439 178.011 170.839 178.131 171.259L178.491 172.499C178.701 173.349 178.921 174.179 179.081 175.039C179.241 175.899 179.401 176.739 179.541 177.589L179.711 178.869L179.791 179.519L179.851 180.159L179.971 181.449L180.041 182.749C180.101 183.609 180.091 184.479 180.121 185.339C180.121 187.029 180.121 188.719 179.991 190.409L172.331 191.409C172.525 190.226 172.619 189.029 172.611 187.829C172.611 176.349 168.051 169.059 162.371 168.939C156.691 168.819 153.901 176.109 153.851 182.559C153.725 186.1 154.338 189.628 155.651 192.919L147.651 193.979L138.841 136.789C156.361 127.599 184.251 136.789 184.251 136.789L182.401 129.369L132.401 124.459L141.401 186.859L97.2109 199.289C98.2109 194.289 95.6009 184.059 91.2109 184.409C86.8209 184.759 87.6209 191.749 87.6209 191.749C88.6809 183.429 94.1709 187.369 93.6209 195.659C93.0709 203.949 90.3909 202.519 90.3909 202.519C90.5648 203.032 90.8863 203.482 91.315 203.813C91.7437 204.144 92.2606 204.341 92.8009 204.379C94.5709 204.379 165.081 200.909 165.081 200.909L236.801 200.789C237.62 198.102 238.288 195.371 238.801 192.609L239.141 190.509L239.221 189.989L239.281 189.459L239.401 188.399C239.401 188.039 239.481 187.689 239.511 187.339L239.581 186.259L239.661 185.189C239.661 184.839 239.661 184.479 239.661 184.119C239.783 181.223 239.582 178.322 239.061 175.469V175.469ZM163.121 197.299C159.851 197.649 156.611 192.419 155.901 185.639C155.191 178.859 157.261 173.059 160.531 172.719C163.801 172.379 167.041 177.599 167.751 184.389C168.461 191.179 166.391 196.999 163.121 197.299Z" fill="#54312D"/>
<path d="M88.0009 200.749C88.0009 200.749 85.5209 199.839 84.5309 194.359C83.7109 189.819 76.2809 152.359 76.2809 152.359C76.045 151.23 76.1828 150.054 76.6734 149.01C77.164 147.966 77.9809 147.109 79.0009 146.569L131.301 119.129L181.421 124.869C181.421 124.869 175.051 120.329 159.111 117.569C143.171 114.809 134.771 113.409 132.911 113.069C130.557 112.816 128.19 113.416 126.241 114.759C124.111 116.159 74.9109 144.919 74.9109 144.919C74.9109 144.919 71.6809 146.219 73.1709 153.159C74.7609 160.589 81.9509 198.059 81.9509 198.059C81.9509 198.059 82.1909 200.769 84.1409 200.749C86.0909 200.729 88.0009 200.749 88.0009 200.749Z" fill="#54312D"/>
<path d="M90.4309 199.839C91.4968 199.839 92.3609 197.95 92.3609 195.619C92.3609 193.289 91.4968 191.399 90.4309 191.399C89.3649 191.399 88.5009 193.289 88.5009 195.619C88.5009 197.95 89.3649 199.839 90.4309 199.839Z" fill="#54312D"/>
<path d="M164.221 192.159C162.521 192.309 160.891 189.479 160.581 185.849C160.271 182.219 161.371 179.149 163.061 178.999C164.751 178.849 166.391 181.679 166.711 185.309C167.031 188.939 165.911 191.999 164.221 192.159Z" fill="#54312D"/>
<path d="M164.221 192.159C162.521 192.309 160.891 189.479 160.581 185.849C160.271 182.219 161.371 179.149 163.061 178.999C164.751 178.849 166.391 181.679 166.711 185.309C167.031 188.939 165.911 191.999 164.221 192.159Z" fill="#54312D"/>
<path d="M187.341 140.259C177.591 136.119 158.341 134.259 153.941 135.979L167.491 151.509C167.491 151.509 189.271 150.759 203.751 154.509C203.751 154.499 197.081 144.399 187.341 140.259ZM169.001 137.999C194.091 139.399 199.221 151.439 199.221 151.439C186.001 142.489 169.001 137.999 169.001 137.999Z" fill="#54312D"/>
<path d="M74.1309 226.879V211.219H79.7509C81.361 211.117 82.9645 211.504 84.3509 212.329C85.1243 212.945 85.6508 213.817 85.8344 214.789C86.018 215.76 85.8464 216.764 85.3509 217.619C84.9507 218.208 84.3725 218.653 83.7009 218.889C84.4462 219.063 85.1097 219.486 85.5809 220.089C86.0328 220.717 86.2648 221.476 86.2409 222.249C86.2858 222.899 86.1771 223.55 85.9234 224.149C85.6697 224.748 85.2783 225.28 84.7809 225.699C83.5118 226.561 81.9919 226.977 80.4609 226.879H74.1309ZM77.9009 217.749H79.9009C80.521 217.796 81.1393 217.638 81.6609 217.299C81.8424 217.135 81.9844 216.932 82.0762 216.705C82.168 216.478 82.2072 216.234 82.1909 215.989C82.2159 215.723 82.1772 215.454 82.0781 215.206C81.979 214.957 81.8223 214.736 81.6209 214.559C81.0682 214.226 80.4242 214.075 79.7809 214.129H77.9009V217.749ZM77.9009 220.219V223.999H80.3809C80.9434 224.034 81.5001 223.868 81.9509 223.529C82.1339 223.364 82.2774 223.159 82.3708 222.931C82.4643 222.702 82.5053 222.456 82.4909 222.209C82.5335 221.942 82.5133 221.669 82.4318 221.411C82.3503 221.153 82.2099 220.918 82.0216 220.724C81.8332 220.53 81.6023 220.382 81.347 220.293C81.0917 220.204 80.8191 220.175 80.5509 220.209L77.9009 220.219Z" fill="#54312D"/>
<path d="M97.2309 224H92.0609L91.1509 226.92H87.1509L92.8909 211.26H96.4409L102.231 226.92H98.1409L97.2309 224ZM93.0009 221H96.3609L94.6809 215.57L93.0009 221Z" fill="#54312D"/>
<path d="M116.421 226.879H112.661L107.111 217.139V226.879H103.341V211.219H107.111L112.651 220.999V211.249H116.421V226.879Z" fill="#54312D"/>
<path d="M131.621 224.999C130.913 225.721 130.037 226.253 129.071 226.549C127.892 226.961 126.65 227.164 125.401 227.149C124.495 227.192 123.59 227.046 122.743 226.72C121.896 226.395 121.126 225.898 120.481 225.259C119.177 223.832 118.463 221.963 118.481 220.029V218.669C118.454 217.292 118.734 215.925 119.301 214.669C119.797 213.571 120.612 212.648 121.641 212.019C122.704 211.386 123.924 211.064 125.161 211.089C126.786 210.99 128.395 211.46 129.711 212.419C130.273 212.929 130.729 213.544 131.052 214.231C131.375 214.918 131.558 215.661 131.591 216.419H128.001C127.949 215.717 127.652 215.055 127.161 214.549C126.639 214.147 125.989 213.948 125.331 213.989C124.892 213.975 124.457 214.078 124.071 214.29C123.686 214.501 123.365 214.811 123.141 215.189C122.561 216.243 122.287 217.438 122.351 218.639V219.579C122.268 220.806 122.547 222.029 123.151 223.099C123.434 223.496 123.815 223.813 124.256 224.019C124.698 224.226 125.185 224.316 125.671 224.279C126.459 224.341 127.243 224.11 127.871 223.629V221.199H125.221V218.599H131.621V224.999Z" fill="#54312D"/>
<path d="M137.591 223.999H144.161V226.899H133.821V211.219H137.591V223.999Z" fill="#54312D"/>
<path d="M154.861 224H149.681L148.781 226.92H144.781L150.521 211.26H154.001L159.781 226.92H155.781L154.861 224ZM150.591 221H154.001L152.311 215.57L150.591 221Z" fill="#54312D"/>
<path d="M176.161 220.229H170.221V223.999H177.221V226.899H166.451V211.219H177.261V214.139H170.261V217.439H176.201L176.161 220.229Z" fill="#54312D"/>
<path d="M184.611 216.429L187.171 211.219H191.491L187.111 218.999L191.611 226.889H187.251L184.611 221.589L181.981 226.889H177.631L182.121 218.999L177.751 211.229H182.061L184.611 216.429Z" fill="#54312D"/>
<path d="M196.611 221.569V226.879H192.831V211.219H199.081C200.177 211.198 201.264 211.423 202.261 211.879C203.143 212.288 203.886 212.945 204.401 213.769C204.91 214.599 205.173 215.556 205.161 216.529C205.186 217.226 205.051 217.919 204.767 218.555C204.483 219.191 204.056 219.754 203.521 220.199C202.23 221.173 200.636 221.658 199.021 221.569H196.611ZM196.611 218.649H199.081C199.688 218.695 200.289 218.497 200.751 218.099C200.951 217.899 201.107 217.657 201.207 217.392C201.307 217.126 201.349 216.843 201.331 216.559C201.362 215.92 201.152 215.291 200.741 214.799C200.533 214.581 200.281 214.408 200.002 214.295C199.723 214.181 199.422 214.128 199.121 214.139H196.611V218.649Z" fill="#54312D"/>
<path d="M213.001 221.339H210.951V226.879H207.181V211.219H213.341C214.893 211.126 216.43 211.563 217.701 212.459C218.221 212.875 218.635 213.408 218.908 214.015C219.181 214.622 219.305 215.285 219.271 215.949C219.306 216.896 219.078 217.835 218.611 218.659C218.101 219.425 217.383 220.029 216.541 220.399L219.811 226.719V226.879H215.761L213.001 221.339ZM210.951 218.439H213.341C213.636 218.462 213.932 218.423 214.211 218.325C214.49 218.227 214.745 218.072 214.961 217.869C215.15 217.654 215.296 217.404 215.388 217.133C215.481 216.862 215.519 216.575 215.501 216.289C215.534 215.708 215.337 215.136 214.951 214.699C214.737 214.498 214.483 214.343 214.206 214.245C213.929 214.147 213.634 214.108 213.341 214.129H210.951V218.439Z" fill="#54312D"/>
<path d="M231.251 220.229H225.311V223.999H232.311V226.899H221.541V211.219H232.351V214.139H225.351V217.439H231.291L231.251 220.229Z" fill="#54312D"/>
<path d="M241.941 222.719C241.954 222.473 241.907 222.227 241.804 222.002C241.702 221.777 241.546 221.581 241.351 221.429C240.723 220.987 240.027 220.649 239.291 220.429C238.469 220.151 237.667 219.817 236.891 219.429C234.891 218.443 233.891 217.076 233.891 215.329C233.876 214.499 234.144 213.688 234.651 213.029C235.215 212.329 235.958 211.793 236.801 211.479C237.793 211.098 238.849 210.912 239.911 210.929C240.942 210.916 241.964 211.12 242.911 211.529C243.754 211.888 244.476 212.481 244.991 213.239C245.494 213.994 245.755 214.883 245.741 215.789H242.001C242.018 215.514 241.975 215.238 241.875 214.98C241.775 214.723 241.62 214.491 241.421 214.299C240.974 213.933 240.407 213.748 239.831 213.779C239.264 213.749 238.702 213.903 238.231 214.219C238.046 214.343 237.896 214.512 237.794 214.71C237.691 214.908 237.641 215.128 237.647 215.351C237.653 215.573 237.715 215.791 237.828 215.983C237.94 216.175 238.1 216.335 238.291 216.449C238.992 216.897 239.758 217.234 240.561 217.449C241.486 217.732 242.381 218.107 243.231 218.569C243.984 218.934 244.621 219.501 245.07 220.208C245.519 220.915 245.761 221.732 245.771 222.569C245.795 223.192 245.666 223.811 245.396 224.372C245.126 224.933 244.722 225.42 244.221 225.789C242.973 226.641 241.479 227.055 239.971 226.969C238.785 226.986 237.609 226.751 236.521 226.279C235.581 225.898 234.774 225.247 234.201 224.409C233.673 223.594 233.401 222.64 233.421 221.669H237.201C237.173 222.008 237.217 222.348 237.329 222.668C237.441 222.989 237.619 223.282 237.851 223.529C238.46 223.983 239.215 224.197 239.971 224.129C240.496 224.156 241.015 224.012 241.451 223.719C241.601 223.598 241.722 223.446 241.807 223.274C241.891 223.101 241.937 222.912 241.941 222.719V222.719Z" fill="#54312D"/>
<path d="M255.731 222.72C255.742 222.473 255.694 222.228 255.591 222.004C255.488 221.779 255.334 221.583 255.141 221.429C254.513 220.987 253.817 220.65 253.081 220.429C252.257 220.149 251.452 219.815 250.671 219.429C248.671 218.443 247.671 217.076 247.671 215.33C247.656 214.499 247.924 213.688 248.431 213.03C248.99 212.327 249.73 211.791 250.571 211.48C251.566 211.099 252.625 210.913 253.691 210.929C254.722 210.916 255.744 211.12 256.691 211.53C257.534 211.888 258.256 212.482 258.771 213.24C259.271 213.995 259.529 214.884 259.511 215.789H255.751C255.766 215.513 255.722 215.237 255.62 214.98C255.518 214.722 255.361 214.49 255.161 214.3C254.719 213.933 254.154 213.748 253.581 213.78C253.014 213.749 252.452 213.903 251.981 214.22C251.794 214.342 251.641 214.51 251.537 214.708C251.433 214.906 251.382 215.128 251.388 215.351C251.394 215.575 251.457 215.793 251.572 215.985C251.686 216.178 251.847 216.337 252.041 216.45C252.742 216.897 253.508 217.234 254.311 217.45C255.236 217.732 256.131 218.107 256.981 218.57C257.733 218.935 258.369 219.502 258.816 220.209C259.263 220.916 259.504 221.733 259.511 222.57C259.537 223.191 259.41 223.81 259.141 224.371C258.873 224.932 258.471 225.419 257.971 225.789C256.723 226.641 255.229 227.056 253.721 226.97C252.535 226.987 251.359 226.751 250.271 226.28C249.331 225.898 248.524 225.247 247.951 224.41C247.423 223.595 247.151 222.64 247.171 221.67H250.951C250.923 222.008 250.967 222.348 251.079 222.668C251.191 222.989 251.369 223.282 251.601 223.53C252.21 223.983 252.965 224.197 253.721 224.13C254.245 224.155 254.764 224.011 255.201 223.72C255.358 223.603 255.487 223.452 255.579 223.279C255.67 223.106 255.722 222.915 255.731 222.72V222.72Z" fill="#54312D"/>
<path d="M49.5509 222.589C49.5662 222.346 49.5245 222.103 49.429 221.879C49.3335 221.655 49.1869 221.457 49.0009 221.299C48.3926 220.86 47.7172 220.522 47.0009 220.299C46.1792 220.021 45.3773 219.687 44.6009 219.299C42.6009 218.313 41.6009 216.946 41.6009 215.199C41.5674 214.417 41.7885 213.645 42.2309 212.999C42.7844 212.292 43.526 211.755 44.3709 211.449C45.3627 211.068 46.4185 210.882 47.4809 210.899C48.512 210.885 49.5345 211.09 50.4809 211.499C51.3212 211.858 52.0401 212.452 52.5509 213.209C53.0476 213.962 53.3055 214.847 53.2909 215.749H49.5609C49.5792 215.478 49.5387 215.207 49.442 214.953C49.3453 214.699 49.1948 214.469 49.0009 214.279C48.5604 213.909 47.9957 213.719 47.4209 213.749C46.8572 213.72 46.2993 213.875 45.8309 214.189C45.6437 214.312 45.4909 214.48 45.3871 214.678C45.2834 214.876 45.2321 215.098 45.2381 215.321C45.2441 215.545 45.3072 215.763 45.4215 215.955C45.5358 216.147 45.6974 216.307 45.8909 216.419C46.5885 216.866 47.3508 217.204 48.1509 217.419C49.0737 217.7 49.9651 218.075 50.8109 218.539C51.5639 218.903 52.2001 219.471 52.6472 220.178C53.0943 220.885 53.3346 221.703 53.3409 222.539C53.3666 223.161 53.2397 223.78 52.9712 224.341C52.7028 224.902 52.301 225.389 51.8009 225.759C50.5537 226.633 49.0521 227.069 47.5309 226.999C46.3494 227.014 45.178 226.782 44.0909 226.319C43.1484 225.921 42.3448 225.253 41.7809 224.399C41.2543 223.588 40.9827 222.637 41.0009 221.669H44.7709C44.7422 222.006 44.7853 222.345 44.8974 222.664C45.0094 222.983 45.1879 223.274 45.4209 223.519C46.0263 223.972 46.7776 224.186 47.5309 224.119C48.0543 224.148 48.573 224.008 49.0109 223.719C49.1861 223.589 49.3269 223.418 49.421 223.221C49.5151 223.024 49.5597 222.807 49.5509 222.589Z" fill="#54312D"/>
<path d="M63.2908 222.589C63.3034 222.344 63.2574 222.099 63.1565 221.874C63.0557 221.65 62.9029 221.453 62.7108 221.3C62.0861 220.857 61.3938 220.52 60.6608 220.3C59.8366 220.019 59.0316 219.685 58.2508 219.3C56.2508 218.313 55.2508 216.946 55.2508 215.199C55.2559 214.404 55.5191 213.632 56.0008 212.999C56.5588 212.297 57.299 211.76 58.1408 211.449C59.1329 211.069 60.1886 210.883 61.2508 210.899C62.2821 210.884 63.3047 211.089 64.2508 211.499C65.0922 211.861 65.8136 212.454 66.3308 213.21C66.8276 213.962 67.0855 214.848 67.0708 215.749H63.3008C63.3181 215.475 63.2751 215.201 63.1749 214.945C63.0747 214.689 62.9197 214.459 62.7208 214.27C62.2794 213.901 61.7154 213.711 61.1408 213.74C60.5772 213.71 60.0193 213.865 59.5508 214.179C59.3681 214.308 59.2191 214.479 59.1164 214.677C59.0136 214.876 58.9603 215.096 58.9608 215.32C58.9746 215.539 59.0396 215.751 59.1508 215.941C59.262 216.13 59.4161 216.291 59.6008 216.41C60.3023 216.856 61.0677 217.193 61.8708 217.41C62.793 217.692 63.6843 218.067 64.5308 218.529C65.2825 218.895 65.9173 219.463 66.3642 220.17C66.811 220.877 67.0523 221.694 67.0608 222.529C67.0846 223.152 66.9557 223.771 66.6856 224.332C66.4154 224.893 66.0121 225.38 65.5108 225.749C64.2769 226.62 62.79 227.06 61.2808 226.999C60.0993 227.015 58.9276 226.783 57.8408 226.32C56.9004 225.938 56.0934 225.287 55.5208 224.449C55.0023 223.635 54.7345 222.685 54.7508 221.719H58.5208C58.4922 222.056 58.5353 222.395 58.6474 222.714C58.7594 223.033 58.9378 223.325 59.1708 223.57C59.7758 224.023 60.5275 224.237 61.2808 224.169C61.8013 224.199 62.3173 224.059 62.7508 223.77C62.9334 223.635 63.0787 223.456 63.1732 223.249C63.2676 223.043 63.3081 222.816 63.2908 222.589V222.589Z" fill="#54312D"/>
<path d="M243.251 132.209C242.725 129.416 241.973 126.67 241.001 123.999C240.017 121.279 238.806 118.647 237.381 116.129C235.926 113.592 234.253 111.186 232.381 108.939C230.51 106.681 228.456 104.581 226.241 102.659C221.824 98.8593 216.879 95.7199 211.561 93.3393C206.327 91.0159 200.83 89.337 195.191 88.3393C193.801 88.0793 192.411 87.8593 191.011 87.6593C189.611 87.4593 188.211 87.3093 186.821 87.1893C184.021 86.9293 181.221 86.7893 178.441 86.7393C175.661 86.6893 172.871 86.7393 170.101 86.8393C169.651 86.8393 169.211 86.9093 168.771 86.9293C168.971 87.7193 169.121 89.4693 166.771 90.5593L167.081 91.3893L166.401 92.0693C165.401 93.8493 161.071 95.3293 159.251 95.3293H158.661L158.251 95.1593C157.502 95.8395 156.549 96.2541 155.541 96.3393C153.761 96.3393 152.861 94.7793 152.261 93.7493L151.421 92.3093C151.107 91.7369 150.746 91.1917 150.341 90.6793C150.481 90.8293 149.671 91.1293 148.871 91.4093C141.311 94.1393 134.491 96.4093 127.001 96.9893C126.606 97.6034 126.062 98.1083 125.421 98.4578C124.78 98.8072 124.061 98.99 123.331 98.9893C122.461 98.9827 121.608 98.7445 120.861 98.2993C120.32 98.017 119.755 97.786 119.171 97.6093C112.352 100.179 105.748 103.285 99.4209 106.899C89.9107 112.35 81.2181 119.117 73.6009 126.999C69.8287 130.965 66.434 135.274 63.4609 139.869C62.0087 142.157 60.6736 144.516 59.4609 146.939C59.1609 147.549 58.8809 148.159 58.5909 148.769C58.3009 149.379 58.0009 149.999 57.7309 150.619C57.4609 151.239 57.2209 151.869 56.9709 152.489C56.7209 153.109 56.5009 153.749 56.2809 154.389L57.3909 152.709L58.5309 151.059C58.9209 150.519 59.3009 149.979 59.6909 149.449C60.0809 148.919 60.4909 148.379 60.9009 147.859C62.5009 145.749 64.2209 143.749 65.9809 141.799C69.5089 137.945 73.3123 134.352 77.3609 131.049C85.4258 124.51 94.189 118.882 103.491 114.269C105.811 113.129 108.131 111.989 110.491 110.949C112.851 109.909 115.241 108.899 117.651 107.949L119.461 107.249L121.281 106.569C122.491 106.119 123.701 105.689 124.931 105.269C126.161 104.849 127.381 104.439 128.611 104.049L130.461 103.459L132.311 102.899C142.206 99.9439 152.392 98.0664 162.691 97.2993C165.251 97.1293 167.811 97.0493 170.371 97.0393C172.931 97.0293 175.481 97.1393 178.021 97.3193C180.561 97.4993 183.071 97.7893 185.571 98.1593C186.821 98.3393 188.061 98.5493 189.291 98.7793C190.521 99.0093 191.761 99.2493 192.981 99.5093C197.806 100.57 202.541 102.007 207.141 103.809C211.67 105.55 215.966 107.844 219.931 110.639C221.902 112.027 223.755 113.576 225.471 115.269C227.212 116.948 228.808 118.771 230.241 120.719C233.183 124.71 235.497 129.128 237.101 133.819C238.756 138.679 239.853 143.712 240.371 148.819C240.889 154.099 241.036 159.409 240.811 164.709C242.435 159.541 243.504 154.214 244.001 148.819C244.504 143.274 244.251 137.687 243.251 132.209Z" fill="#B81E46"/>
<path d="M106.811 92.2494C110.131 89.5294 114.011 91.0294 117.811 90.9294C117.101 88.4094 116.481 86.0194 115.741 83.6794C115.461 82.7694 115.741 82.4494 116.541 82.0794C118.331 81.2894 119.801 81.1394 121.241 82.8494C122.351 84.1594 123.881 85.0894 125.091 86.3294C127.091 88.4094 129.341 88.4794 131.801 87.3294C133.605 86.565 135.344 85.6553 137.001 84.6094L107.001 77.4194C109.271 76.3194 110.761 74.7994 113.301 75.2494C119.061 76.2794 125.001 76.9994 130.831 77.8594C131.557 77.966 132.298 77.9114 133.001 77.6994C134.26 77.3322 135.539 77.0351 136.831 76.8094C137.671 76.6494 138.651 76.8094 138.721 77.7494C138.821 79.0194 139.651 78.9294 140.421 79.0294C142.511 79.2994 144.601 79.4994 146.681 79.7794C147.41 79.8481 148.145 79.724 148.811 79.4194C150.131 78.8894 151.461 78.3394 152.901 79.0894C153.481 79.3994 154.021 79.0194 154.551 78.8194C159.831 76.9194 165.141 75.0794 170.381 73.0694C173.578 71.8552 177.074 71.6699 180.381 72.5394C181.951 72.9194 182.381 74.0694 181.381 75.3494C180.56 76.311 179.562 77.1055 178.441 77.6894C174.019 80.1136 169.318 81.9876 164.441 83.2694C162.651 83.7694 162.151 85.0894 161.441 86.4094C161.081 87.0894 161.661 87.0194 162.071 87.0594C163.173 87.0396 164.271 86.9191 165.351 86.6994C165.941 86.6994 166.691 86.4494 166.941 87.2894C167.191 88.1294 166.561 88.4494 165.941 88.7094C165.081 89.0894 164.331 89.4694 164.771 90.6294C164.781 90.7885 164.739 90.9466 164.651 91.0794C164.141 92.0794 159.551 93.7794 158.651 93.1794C157.941 92.7094 157.651 93.0294 157.241 93.3894C155.441 94.7594 155.071 94.6694 153.931 92.7094C153.641 92.2094 153.351 91.7094 153.051 91.2194C151.321 88.3394 151.331 88.3694 148.101 89.5294C141.101 92.0594 134.031 94.4794 126.501 94.9894C126.111 94.9894 125.761 94.9894 125.501 95.5394C125.345 95.8671 125.119 96.1572 124.84 96.3897C124.562 96.6223 124.236 96.7918 123.885 96.8868C123.535 96.9818 123.168 96.9999 122.81 96.9399C122.452 96.88 122.111 96.7434 121.811 96.5394C120.597 95.9411 119.345 95.4266 118.061 94.9994C114.421 93.4894 110.501 93.4894 106.811 92.2494Z" fill="#54312D"/>
</svg>
